# xmcd CD database file
#
# Track frame offsets:
#	150
#	17795
#	36407
#	53497
#
# Disc length: 954 seconds
#
# Revision: 0
# Processed by: cddbd v1.5.1PL0 Copyright (c) Steve Scherf et al.
# Submitted via: CDex 1.60beta1
#
DISCID=2a03b804
DTITLE=Ricken's - Dear my friends - 80's pure
DYEAR=2004
DGENRE=
TTITLE0=Dear my friends
TTITLE1=80's pure
TTITLE2=Ah ha ha!
TTITLE3=heaven knows
EXTD=YEAR: 2004/11/10
EXTT0=
EXTT1=
EXTT2=
EXTT3=
PLAYORDER=
